<svg width="81" height="108" viewBox="0 0 81 108" fill="none" xmlns="http://www.w3.org/2000/svg">
<g filter="url(#filter0_f_25_332)">
<path fill-rule="evenodd" clip-rule="evenodd" d="M78 5V69.0212C78 79.9283 75.0093 88.7367 68.6005 94.9535C62.327 101.124 53.7846 104.041 43.3717 104.041C32.3355 104.041 23.1815 100.944 16.2361 94.4812L16.2284 94.474L16.2207 94.4668C9.27082 87.9085 6 78.6105 6 67.0617V64.047H37.3364L37.3723 67.0254C37.4125 70.3636 38.0551 72.3343 38.8445 73.4084C39.5057 74.3081 40.4929 74.8898 42.3266 74.8898C44.0049 74.8898 44.7902 74.3961 45.2565 73.8089C45.8281 73.0891 46.3662 71.6641 46.3662 69.0212V5H78ZM66.4941 92.7968C72.1549 87.3101 74.9853 79.3849 74.9853 69.0212V8.01465H49.3809V69.0212C49.3809 74.9434 47.0295 77.9044 42.3266 77.9044C37.1012 77.9044 34.4449 74.2902 34.3579 67.0617H9.01465C9.01465 68.0891 9.04176 69.094 9.09596 70.0764C9.62069 79.5863 12.6853 86.9855 18.2897 92.2743C24.5602 98.1093 32.9209 101.027 43.3717 101.027C53.2128 101.027 60.9203 98.2835 66.4941 92.7968Z" fill="#82F3FF" fill-opacity="0.4"/>
</g>
<path fill-rule="evenodd" clip-rule="evenodd" d="M72 0V64.0212C72 74.9283 69.0093 83.7367 62.6005 89.9535C56.327 96.124 47.7846 99.0415 37.3717 99.0415C26.3355 99.0415 17.1815 95.9443 10.2361 89.4812L10.2284 89.474L10.2207 89.4668C3.27082 82.9085 0 73.6105 0 62.0617V59.047H31.3364L31.3723 62.0254C31.4125 65.3636 32.0551 67.3343 32.8445 68.4084C33.5057 69.3081 34.4929 69.8898 36.3266 69.8898C38.0049 69.8898 38.7902 69.3961 39.2565 68.8089C39.8281 68.0891 40.3662 66.6641 40.3662 64.0212V0H72ZM60.4941 87.7968C66.1549 82.3101 68.9853 74.3849 68.9853 64.0212V3.01465H43.3809V64.0212C43.3809 69.9434 41.0295 72.9044 36.3266 72.9044C31.1012 72.9044 28.4449 69.2902 28.3579 62.0617H3.01465C3.01465 63.0891 3.04176 64.094 3.09596 65.0764C3.62069 74.5863 6.68529 81.9855 12.2897 87.2743C18.5602 93.1093 26.9209 96.0268 37.3717 96.0268C47.2128 96.0268 54.9203 93.2835 60.4941 87.7968Z" fill="#82F3FF"/>
<defs>
<filter id="filter0_f_25_332" x="3" y="2" width="78" height="105.041" filterUnits="userSpaceOnUse" color-interpolation-filters="sRGB">
<feFlood flood-opacity="0" result="BackgroundImageFix"/>
<feBlend mode="normal" in="SourceGraphic" in2="BackgroundImageFix" result="shape"/>
<feGaussianBlur stdDeviation="1.5" result="effect1_foregroundBlur_25_332"/>
</filter>
</defs>
</svg>
